<svg width="194" height="80" viewBox="0 0 194 80" fill="none" xmlns="http://www.w3.org/2000/svg">
<path fill-rule="evenodd" clip-rule="evenodd" d="M67.3428 53.9032C67.3428 54.6007 67.2196 55.2438 66.9709 55.817C66.7228 56.401 66.3799 56.8937 65.9392 57.3039C65.5031 57.7151 64.9799 58.0356 64.3808 58.2624C63.7857 58.4932 63.1387 58.6028 62.4483 58.6028C61.7626 58.6028 61.1212 58.4932 60.5174 58.2624C59.9178 58.0356 59.4063 57.7151 58.9707 57.3039C58.5407 56.8937 58.1973 56.4015 57.9471 55.817C57.699 55.2438 57.5783 54.6007 57.5783 53.9032V44.8734H59.6406V53.8053C59.6406 54.721 59.8887 55.4456 60.4023 55.9689C60.9148 56.4922 61.5965 56.748 62.4483 56.748C63.3022 56.748 63.9885 56.4922 64.4979 55.9689C65.0253 55.4466 65.2815 54.721 65.2815 53.8053V44.8734H67.3428V53.9032Z" fill="#2494A7"/>
<path fill-rule="evenodd" clip-rule="evenodd" d="M76.388 58.4931V52.5864C76.388 51.8302 76.202 51.2758 75.8286 50.941C75.4495 50.5915 74.9925 50.4208 74.4403 50.4208C73.8936 50.4208 73.4193 50.5981 73.026 50.9461C72.6296 51.2972 72.4304 51.8419 72.4304 52.5864V58.4931H70.4806V48.7917H72.3958V49.769C72.729 49.4006 73.1192 49.125 73.5731 48.9487C74.0251 48.7708 74.4933 48.6832 74.9773 48.6832C75.4709 48.6832 75.9223 48.7545 76.3207 48.9079C76.7278 49.0679 77.0717 49.2753 77.3647 49.5612C77.7335 49.929 77.9933 50.3398 78.1299 50.7933C78.2705 51.2457 78.3449 51.7507 78.3449 52.2964V58.4957H76.3885V58.4931H76.388ZM81.3284 58.485H83.2745V48.7897H81.3284V58.485ZM81.2677 46.8799H83.3357V44.8157H81.2677V46.8799Z" fill="#2494A7"/>
<path fill-rule="evenodd" clip-rule="evenodd" d="M91.9508 58.4931V57.4577C91.5819 57.9025 91.1973 58.2088 90.7948 58.3677C90.3918 58.5277 89.9302 58.6093 89.3948 58.6093C88.9067 58.6093 88.4563 58.5344 88.0457 58.3779C87.6269 58.221 87.2896 58.0141 87.0196 57.7491C86.7766 57.5102 86.5814 57.2263 86.4362 56.9089C86.291 56.5894 86.1795 56.2465 86.103 55.8908C86.0292 55.5249 85.9767 55.1448 85.9568 54.7637C85.9349 54.3815 85.9349 54.0065 85.9349 53.637C85.9349 53.2651 85.9349 52.8895 85.9568 52.5094C85.9767 52.1283 86.0297 51.7558 86.103 51.4057C86.1805 51.0404 86.291 50.701 86.4362 50.3846C86.5809 50.0681 86.7776 49.7904 87.0196 49.5463C87.2881 49.2758 87.6218 49.0714 88.0334 48.9125C88.4456 48.7586 88.8873 48.6857 89.3708 48.6857C89.8976 48.6857 90.3587 48.7576 90.7688 48.9125C91.1733 49.072 91.5559 49.3583 91.9161 49.7726V44.8763H93.8664V58.4967H91.9503V58.4931H91.9508ZM91.9156 53.6335C91.9156 53.2024 91.8907 52.7902 91.8443 52.408C91.802 52.0151 91.7057 51.6671 91.5728 51.3777C91.4301 51.0842 91.2227 50.8574 90.9614 50.6791C90.6898 50.5048 90.3414 50.4223 89.9058 50.4223C89.461 50.4223 89.1033 50.5048 88.844 50.6791C88.5847 50.8564 88.3804 51.0832 88.2362 51.3777C88.0879 51.6671 87.9922 52.0156 87.9468 52.408C87.901 52.7902 87.8811 53.2029 87.8811 53.6335C87.8811 54.0722 87.901 54.4742 87.9468 54.8676C87.9927 55.2544 88.0879 55.6029 88.2362 55.8959C88.3804 56.2006 88.5826 56.4345 88.844 56.6072C89.1018 56.7795 89.461 56.8651 89.9058 56.8651C90.3414 56.8651 90.6898 56.7795 90.9614 56.6072C91.2233 56.434 91.4301 56.2001 91.5728 55.8959C91.7057 55.6024 91.802 55.2518 91.8443 54.8676C91.8907 54.4742 91.9156 54.0702 91.9156 53.6335Z" fill="#2494A7"/>
<path fill-rule="evenodd" clip-rule="evenodd" d="M102.183 58.4931V57.6131C101.823 57.9708 101.459 58.2175 101.07 58.3749C100.687 58.5329 100.201 58.6052 99.6023 58.6052C98.993 58.6052 98.4749 58.5385 98.0606 58.3861C97.6454 58.2378 97.2934 58.0177 97.0015 57.7242C96.4945 57.1876 96.2372 56.4972 96.2372 55.6422C96.2372 54.8243 96.5175 54.1573 97.0743 53.633C97.6276 53.1133 98.458 52.8478 99.5845 52.8478H102.142V52.168C102.142 51.551 101.983 51.098 101.658 50.7927C101.332 50.4962 100.788 50.3428 100.026 50.3428C99.4907 50.3428 99.0679 50.4147 98.7642 50.5578C98.4565 50.6954 98.1727 50.941 97.9037 51.2783L96.625 50.0809C97.0758 49.5438 97.5772 49.1754 98.1055 48.9782C98.6328 48.781 99.2982 48.6827 100.098 48.6827C102.764 48.6827 104.098 49.7915 104.098 52.004V58.4926H102.183V58.4931ZM102.141 54.2047H99.8693C99.2976 54.2047 98.8605 54.325 98.5691 54.5726C98.2767 54.8141 98.1325 55.1581 98.1325 55.606C98.1325 56.0519 98.2767 56.3922 98.562 56.6297C98.8473 56.8636 99.2976 56.9803 99.9085 56.9803C100.279 56.9803 100.612 56.9553 100.904 56.8936C101.197 56.8401 101.47 56.6868 101.726 56.4269C102.003 56.1466 102.143 55.6676 102.143 54.9935V54.2042H102.141V54.2047Z" fill="#2494A7"/>
<path fill-rule="evenodd" clip-rule="evenodd" d="M112.65 58.4931V57.4577C112.279 57.9025 111.896 58.2088 111.493 58.3677C111.096 58.5277 110.625 58.6093 110.089 58.6093C109.604 58.6093 109.154 58.5344 108.743 58.3779C108.326 58.221 107.99 58.0141 107.717 57.7491C107.476 57.5102 107.287 57.2263 107.136 56.9089C106.992 56.5894 106.88 56.2465 106.807 55.8908C106.724 55.5249 106.675 55.1448 106.66 54.7637C106.638 54.3815 106.627 54.0065 106.627 53.637C106.627 53.2651 106.638 52.8895 106.66 52.5094C106.675 52.1283 106.724 51.7558 106.807 51.4057C106.88 51.0404 106.992 50.701 107.136 50.3846C107.284 50.0681 107.476 49.7904 107.717 49.5463C107.99 49.2758 108.326 49.0714 108.734 48.9125C109.143 48.7586 109.589 48.6857 110.075 48.6857C110.595 48.6857 111.061 48.7576 111.473 48.9125C111.875 49.072 112.258 49.3583 112.618 49.7726V44.8763H114.565V58.4967H112.649V58.4931H112.65ZM112.618 53.6335C112.618 53.2024 112.588 52.7902 112.545 52.408C112.496 52.0151 112.408 51.6671 112.27 51.3777C112.127 51.0842 111.926 50.8574 111.656 50.6791C111.393 50.5048 111.037 50.4223 110.609 50.4223C110.161 50.4223 109.805 50.5048 109.546 50.6791C109.285 50.8564 109.081 51.0832 108.934 51.3777C108.791 51.6671 108.691 52.0156 108.645 52.408C108.605 52.7902 108.581 53.2029 108.581 53.6335C108.581 54.0722 108.605 54.4742 108.645 54.8676C108.692 55.2544 108.793 55.6029 108.934 55.8959C109.081 56.2006 109.285 56.4345 109.546 56.6072C109.805 56.7795 110.161 56.8651 110.609 56.8651C111.037 56.8651 111.394 56.7795 111.656 56.6072C111.926 56.434 112.128 56.2001 112.27 55.8959C112.408 55.6024 112.496 55.2518 112.545 54.8676C112.588 54.4742 112.618 54.0702 112.618 53.6335Z" fill="#2494A7"/>
<path fill-rule="evenodd" clip-rule="evenodd" d="M122.502 58.4931V44.8732H131.206V46.7295H124.567V50.7081H130.228V52.5405H124.567V56.6353H131.206V58.4931H122.502Z" fill="#2494A7"/>
<path fill-rule="evenodd" clip-rule="evenodd" d="M139.361 58.4931V57.4577C138.991 57.9026 138.607 58.2088 138.205 58.3678C137.804 58.5278 137.333 58.6093 136.803 58.6093C136.32 58.6093 135.864 58.5344 135.45 58.378C135.037 58.221 134.695 58.0141 134.432 57.7492C134.188 57.5102 133.995 57.2264 133.845 56.9089C133.698 56.5894 133.594 56.2465 133.511 55.8908C133.437 55.525 133.383 55.1448 133.371 54.7637C133.347 54.3815 133.339 54.0065 133.339 53.6371C133.339 53.2651 133.35 52.8896 133.371 52.5094C133.383 52.1283 133.437 51.7558 133.511 51.4057C133.594 51.0404 133.698 50.701 133.845 50.3846C133.995 50.0682 134.188 49.7905 134.432 49.5464C134.695 49.2758 135.033 49.0715 135.444 48.9125C135.848 48.7586 136.296 48.6857 136.781 48.6857C137.307 48.6857 137.765 48.7576 138.175 48.9125C138.591 49.072 138.967 49.3584 139.324 49.7726V44.8763H141.278V58.4967H139.361V58.4931H139.361ZM139.323 53.6335C139.323 53.2024 139.296 52.7902 139.26 52.408C139.21 52.0152 139.122 51.6671 138.977 51.3777C138.835 51.0842 138.633 50.8575 138.369 50.6791C138.099 50.5048 137.747 50.4223 137.316 50.4223C136.869 50.4223 136.516 50.5048 136.256 50.6791C135.992 50.8564 135.796 51.0832 135.643 51.3777C135.494 51.6671 135.401 52.0157 135.354 52.408C135.311 52.7902 135.289 53.2029 135.289 53.6335C135.289 54.0722 135.311 54.4743 135.354 54.8676C135.402 55.2544 135.494 55.6029 135.643 55.8959C135.796 56.2006 135.991 56.4345 136.256 56.6073C136.516 56.7795 136.869 56.8651 137.316 56.8651C137.748 56.8651 138.099 56.7795 138.369 56.6073C138.633 56.434 138.835 56.2001 138.977 55.8959C139.122 55.6024 139.21 55.2519 139.26 54.8676C139.296 54.4743 139.323 54.0702 139.323 53.6335ZM144.375 58.485H146.325V48.7897H144.375V58.485ZM144.31 46.8799H146.381V44.8157H144.31V46.8799Z" fill="#2494A7"/>
<path fill-rule="evenodd" clip-rule="evenodd" d="M152.319 58.4931C151.859 58.4931 151.464 58.4141 151.131 58.2623C150.802 58.1068 150.527 57.9056 150.313 57.6579C150.097 57.4149 149.934 57.1183 149.825 56.7988C149.717 56.4752 149.661 56.1379 149.661 55.7955V50.4651H148.553V48.971H149.661V46.0243H151.611V48.971H153.485V50.4651H151.611V55.6961C151.611 56.0564 151.699 56.3331 151.874 56.5344C152.041 56.7305 152.312 56.8263 152.682 56.8263H153.483V58.4956H152.32V58.4931H152.319Z" fill="#2494A7"/>
<path fill-rule="evenodd" clip-rule="evenodd" d="M163.577 53.6334C163.577 54.4625 163.5 55.1886 163.347 55.8011C163.193 56.4273 162.889 56.973 162.428 57.4571C162.111 57.7914 161.715 58.0625 161.235 58.279C160.756 58.4961 160.189 58.6026 159.522 58.6026C158.86 58.6026 158.294 58.4961 157.818 58.279C157.344 58.062 156.951 57.7914 156.633 57.4571C156.175 56.973 155.869 56.4273 155.717 55.8011C155.565 55.1886 155.488 54.4625 155.488 53.6334C155.488 52.8171 155.565 52.1007 155.717 51.4826C155.869 50.8645 156.175 50.3111 156.633 49.8265C156.951 49.4953 157.344 49.2237 157.818 49.0077C158.294 48.7916 158.859 48.6831 159.522 48.6831C160.189 48.6831 160.756 48.7916 161.235 49.0077C161.714 49.2243 162.111 49.4953 162.428 49.8265C162.888 50.3111 163.194 50.8645 163.347 51.4826C163.5 52.0976 163.577 52.8161 163.577 53.6334ZM161.628 53.6334C161.628 53.0948 161.591 52.598 161.511 52.1246C161.431 51.6518 161.251 51.2665 160.955 50.971C160.588 50.6026 160.108 50.4207 159.522 50.4207C158.948 50.4207 158.48 50.6026 158.109 50.971C157.813 51.2676 157.628 51.6518 157.556 52.1246C157.481 52.5975 157.441 53.0948 157.441 53.6334C157.441 54.1705 157.48 54.6704 157.556 55.1499C157.631 55.6186 157.813 55.9932 158.109 56.2953C158.491 56.6744 158.965 56.8655 159.522 56.8655C160.098 56.8655 160.576 56.6775 160.955 56.2953C161.25 55.9932 161.431 55.6186 161.511 55.1499C161.59 54.6704 161.628 54.1695 161.628 53.6334Z" fill="#2494A7"/>
<path fill-rule="evenodd" clip-rule="evenodd" d="M171.545 51.0683C171.324 50.8563 171.112 50.6912 170.898 50.5827C170.694 50.4762 170.418 50.4212 170.089 50.4212C169.551 50.4212 169.101 50.6173 168.717 51.0005C168.347 51.3949 168.157 51.9228 168.157 52.6036V58.494H166.207V48.7926H168.118V49.8474C168.377 49.5034 168.732 49.2247 169.19 49.0092C169.647 48.7972 170.156 48.6851 170.705 48.6851C171.173 48.6851 171.598 48.7519 171.964 48.893C172.331 49.0311 172.685 49.2696 173.011 49.6028L171.545 51.0683ZM174.612 58.4848H176.559V48.7896H174.612V58.4848ZM174.557 46.8798H176.614V44.8156H174.557V46.8798Z" fill="#2494A7"/>
<path fill-rule="evenodd" clip-rule="evenodd" d="M184.893 58.4931V57.6131C184.538 57.9708 184.169 58.2175 183.783 58.3749C183.401 58.5329 182.911 58.6052 182.311 58.6052C181.698 58.6052 181.186 58.5385 180.771 58.3861C180.358 58.2378 180.003 58.0177 179.71 57.7242C179.201 57.1876 178.95 56.4972 178.95 55.6422C178.95 54.8243 179.226 54.1573 179.779 53.633C180.333 53.1133 181.169 52.8478 182.293 52.8478H184.849V52.168C184.849 51.551 184.691 51.098 184.366 50.7927C184.046 50.4962 183.496 50.3428 182.734 50.3428C182.197 50.3428 181.779 50.4147 181.469 50.5578C181.17 50.6954 180.882 50.941 180.611 51.2783L179.331 50.0809C179.788 49.5438 180.281 49.1754 180.81 48.9782C181.339 48.781 182.006 48.6827 182.807 48.6827C185.47 48.6827 186.804 49.7915 186.804 52.004V58.4926H184.893V58.4931ZM184.851 54.2047H182.58C182.007 54.2047 181.571 54.325 181.28 54.5726C180.985 54.8141 180.844 55.1581 180.844 55.606C180.844 56.0519 180.981 56.3922 181.27 56.6297C181.561 56.8636 182.006 56.9803 182.618 56.9803C182.986 56.9803 183.319 56.9553 183.612 56.8936C183.904 56.8401 184.179 56.6868 184.435 56.4269C184.713 56.1466 184.85 55.6676 184.85 54.9935V54.2047H184.851Z" fill="#2494A7"/>
<path fill-rule="evenodd" clip-rule="evenodd" d="M192.394 58.4931C191.937 58.4931 191.543 58.4141 191.2 58.2709C190.864 58.1216 190.59 57.9306 190.371 57.6895C190.151 57.4506 189.996 57.1601 189.892 56.8376C189.796 56.5109 189.742 56.1706 189.742 55.8164V44.8717H191.691V55.6931C191.691 56.0651 191.77 56.3428 191.925 56.54C192.072 56.727 192.349 56.8243 192.743 56.8243H193.6V58.4926H192.394V58.4931Z" fill="#2494A7"/>
<path fill-rule="evenodd" clip-rule="evenodd" d="M0.389801 43.2976C0.389801 43.2976 2.4496 56.4492 7.67782 62.147C7.67782 62.147 32.1157 59.9763 48.9931 60.3559C48.9931 60.3559 51.4039 50.5011 51.3632 39.6864C51.3632 39.6864 48.5422 39.4372 43.2223 39.4372C34.7961 39.4372 20.0942 40.0599 0.389801 43.2976Z" fill="#2494A7"/>
<path fill-rule="evenodd" clip-rule="evenodd" d="M45.3476 79.9491C45.3339 79.9833 45.3247 79.9919 45.3247 79.9919C45.3247 79.9919 46.3345 79.9094 50.451 79.3203C54.565 78.7379 59.1146 77.4569 59.1146 77.4569C66.8097 74.7578 72.576 68.7405 72.794 68.531C73.0054 68.3073 74.9695 66.3374 75.5533 65.6944C76.1224 65.0477 75.807 64.6579 75.807 64.6579C75.0596 63.2938 73.4599 62.9738 73.4599 62.9738C70.6919 62.2202 51.5148 62.2202 51.5148 62.2202C50.6192 68.1259 45.69 79.1838 45.3476 79.9491Z" fill="#2494A7"/>
<path fill-rule="evenodd" clip-rule="evenodd" d="M9.11453 63.8942L9.14867 63.939L9.16701 63.9563L9.1502 63.939L9.11453 63.8942Z" fill="#2494A7"/>
<path fill-rule="evenodd" clip-rule="evenodd" d="M49.2453 13.2005C49.2453 13.2005 48.8653 6.52841 43.3436 0.023949C42.9982 0.0168153 42.6538 0 42.3058 0C28.3513 0 15.9787 6.41019 8.26427 16.2955C13.3086 14.9411 25.7815 12.5406 49.2453 13.2005Z" fill="#2494A7"/>
<path fill-rule="evenodd" clip-rule="evenodd" d="M7.06946 61.4285C2.29365 55.4234 0.389748 43.3016 0.389748 43.3016H0.393823L0.396371 43.3037C32.537 38.0206 51.3636 39.6869 51.3636 39.6869C51.4095 50.5047 48.9981 60.363 48.9981 60.363C32.3984 59.9916 8.4914 62.0716 7.70171 62.1414L7.06946 61.4285Z" fill="#2494A7"/>
<mask id="mask0_1791_47" style="mask-type:luminance" maskUnits="userSpaceOnUse" x="9" y="62" width="40" height="18">
<path fill-rule="evenodd" clip-rule="evenodd" d="M9.13384 62.3422H48.559V79.9924H9.13384V62.3422Z" fill="white"/>
</mask>
<g mask="url(#mask0_1791_47)">
<path fill-rule="evenodd" clip-rule="evenodd" d="M48.559 62.3422C30.6051 62.3422 11.1743 63.8025 9.28974 63.9488H9.31165H9.28872C9.23778 63.9534 9.19294 63.9574 9.16951 63.9585L9.16798 63.9574C9.14709 63.9574 9.13384 63.9585 9.13384 63.9585C22.6507 79.8642 41.5328 79.9957 42.7347 79.9819L42.8202 79.9926L42.7367 79.9819H42.8024C46.4192 71.4 48.559 62.3422 48.559 62.3422Z" fill="#2494A7"/>
</g>
<path fill-rule="evenodd" clip-rule="evenodd" d="M84.4687 40.8667C75.5238 38.4672 54.319 37.5892 54.319 37.5892C54.481 30.0804 52.5313 15.2804 52.5313 15.2804C61.5204 15.366 75.694 17.4303 76.1622 17.4996C76.1479 17.4889 76.0353 17.364 76.02 17.2417L76.0109 17.2325C76.0165 17.2443 76.02 17.2504 76.02 17.2504C69.8809 14.5492 52.3912 13.3492 52.3912 13.3492C49.8132 3.40376 46.5786 0.367324 46.4059 0.213438C46.3916 0.203247 46.4135 0.203247 46.491 0.203247C67.9092 2.20172 84.6449 19.3396 84.6449 40.1951C84.6449 40.3016 84.6037 40.7923 84.6021 40.8998L84.4687 40.8667Z" fill="#2494A7"/>
<path fill-rule="evenodd" clip-rule="evenodd" d="M0 38.8422C0.277154 30.8993 2.66709 24.0733 7.11633 17.9454C10.511 17.2178 17.8295 15.9301 25.1369 15.4017C35.4859 14.6414 49.5249 15.1143 49.5249 15.1143C50.955 23.3237 51.3636 37.4878 51.3636 37.4878C29.8572 36.2975 0.613916 40.8228 0.104442 40.8972L0.0208884 39.9709L0 38.8422Z" fill="#2494A7"/>
<path fill-rule="evenodd" clip-rule="evenodd" d="M76.4507 63.8165C69.1081 62.1279 51.5639 62.3847 51.5639 62.3847C50.6733 68.3006 45.6902 79.1857 45.3509 79.948C45.3371 79.9816 45.3289 79.9918 45.3289 79.9918C45.3289 79.9918 46.3352 79.9062 50.4497 79.3182C52.2924 79.0573 54.2198 78.6553 55.7889 78.2899C64.1627 75.6188 71.3732 70.5411 76.4884 63.9057L76.4507 63.8165Z" fill="#2494A7"/>
</svg>
